<svg width="76" height="76" fill="none" xmlns="http://www.w3.org/2000/svg"><path d="M67.132 8.497v-7.23c0-.7-.566-1.267-1.266-1.267H25.332c-.699 0-1.266.567-1.266 1.267v7.277l-7.446 13.65a1.268 1.268 0 00-.154.606v26.6h2.533V23.123l7.086-12.99h37.647l-6.578 12.06a1.267 1.267 0 00-.155.607v45.6H46.866v2.533h22.8a6.34 6.34 0 006.333-6.333V22.8c0-.24-.069-.476-.197-.68l-8.67-13.623zM26.6 7.6V2.533h38V7.6h-38zm46.867 57a3.8 3.8 0 01-3.8 3.8H59.533V23.123l6.417-11.765 7.516 11.81V64.6z" fill="#5D62B5"/><path d="M18.255 53.532a4.983 4.983 0 00-1.79-.332 5.073 5.073 0 00-4.904 3.8h-.162a5.067 5.067 0 00-5.066 5.067H5.066c-.545 0-1.029.35-1.2.866l-3.8 11.4A1.267 1.267 0 001.265 76h43.067a1.267 1.267 0 001.2-1.667l-3.8-11.4a1.267 1.267 0 00-1.2-.866h-1.267A5.067 5.067 0 0034.199 57h-.16a5.073 5.073 0 00-4.906-3.8 4.99 4.99 0 00-1.788.332 5.037 5.037 0 00-9.09 0zM39.62 64.6l2.955 8.867H3.025L5.978 64.6h33.64zm-14.314-9.039a1.267 1.267 0 002.12.847 2.52 2.52 0 014.24 1.859c0 .7.567 1.266 1.267 1.266h1.266c1.4 0 2.534 1.135 2.534 2.534H8.866c0-1.4 1.134-2.534 2.533-2.534h1.267c.7 0 1.267-.567 1.267-1.266a2.52 2.52 0 014.237-1.86 1.267 1.267 0 002.12-.846 2.514 2.514 0 015.019 0h-.003zM31.665 30.4h2.533v2.533h-2.533V30.4zm12.667 0h2.533v2.533h-2.533V30.4z" fill="#5D62B5"/><path d="M50.633 15.508l-5.506 4.759H33.99l-5.987-4.79a1.266 1.266 0 00-1.688.094 7.663 7.663 0 00.284 11.116v13.846c0 6.996 5.671 12.667 12.666 12.667 6.996 0 12.667-5.67 12.667-12.667V26.841a7.892 7.892 0 002.521-5.385 7.994 7.994 0 00-2.062-5.85 1.267 1.267 0 00-1.758-.098zm-24.025 5.779a5.147 5.147 0 01.795-3.04l3.905 3.124-3.218 3.218a5.129 5.129 0 01-1.482-3.302zm12.657 29.38c-1.373 0-2.533-.87-2.533-1.9 0-1.03 1.16-1.9 2.533-1.9s2.534.87 2.534 1.9c0 1.03-1.16 1.9-2.534 1.9zM49.4 40.533a10.134 10.134 0 01-5.133 8.803c.036-.188.059-.378.066-.57a4.787 4.787 0 00-5.067-4.432 4.787 4.787 0 00-5.066 4.433c.008.19.03.38.066.569a10.134 10.134 0 01-5.133-8.803V27.125l4.324-4.325h11.619l2.533 2.534h-2.01a6.334 6.334 0 000 12.666h3.8v2.533zm0-5.066h-3.8a3.8 3.8 0 010-7.6h3.8v7.6zm1.114-10.811l-3.054-3.054 3.79-3.279c.502.915.736 1.952.674 2.993a5.37 5.37 0 01-1.41 3.34zm19.151 31.077h-6.333c-.7 0-1.267.568-1.267 1.267v5.067c0 .7.568 1.266 1.267 1.266h6.333c.7 0 1.267-.567 1.267-1.266V57c0-.7-.566-1.267-1.267-1.267zM68.4 60.8h-3.8v-2.533h3.8V60.8zm-6.335-10.134H68.4V53.2h-6.334v-2.534zm0-5.066h8.867v2.533h-8.867V45.6zm-15.2 17.734h7.6v2.533h-7.6v-2.534zm0-5.067h7.6V60.8h-7.6v-2.533zm15.2-17.734h8.867v2.533h-8.867v-2.533zm0-5.066h3.8V38h-3.8v-2.533zm6.334 0h2.533V38H68.4v-2.533zM62.065 22.8h8.867v2.533h-8.867V22.8zm0 5.067h8.867V30.4h-8.867v-2.533z" fill="#5D62B5"/></svg>