<svg width="76" height="76" fill="none" xmlns="http://www.w3.org/2000/svg"><path d="M74.243 15.959a2.235 2.235 0 00-1.907-1.057H57.924C56.499 6.459 49.154 0 40.31 0c-9.859 0-17.88 8.022-17.88 17.882 0 8.46 6.172 13.364 8.495 15.21l.433.345c-.061.982-.35 3.182-1.735 4.152-.992.697-2.512.7-4.514.003-1.758-.613-3.417-1.69-4.93-3.204l-8.856-8.856a3.082 3.082 0 00-2.418-.9 3.11 3.11 0 00-2.27 1.253 26.963 26.963 0 00-5.068 18.854c.006.255.169 6.333 2.444 13.12 3.079 9.183 8.584 15.184 15.917 17.356 1.78.529 3.739.785 5.986.785h10.22c4.57 0 8.99-1.323 12.78-3.825l.384-.255c10.634-7.15 14.48-20.82 8.947-31.797-1.64-3.254-3.9-5.847-6.73-7.722a47.13 47.13 0 001.935-2.597h7.956c1.766 0 3.4-.455 4.73-1.311 4.017-2.595 6.876-7.608 8.223-10.366.34-.7.298-1.51-.115-2.168zM55.584 41.465c4.858 9.638 1.441 21.669-8 28.015l-.31.207a20.163 20.163 0 01-11.141 3.333h-10.22c-1.957 0-3.636-.218-5.14-.662C5.275 67.768 4.553 44.901 4.54 44.552c-.852-8.264 2.448-14.133 4.492-16.894l-1.199-.887 1.383.868 8.857 8.854c1.831 1.835 3.87 3.15 6.054 3.912 2.96 1.031 5.381.903 7.208-.378 2.672-1.875 3-5.486 3.016-6.943a2.082 2.082 0 00-.648-1.554 15.702 15.702 0 00-.925-.772c-2.206-1.753-7.37-5.855-7.37-12.877 0-8.217 6.686-14.902 14.903-14.902 7.658 0 13.98 5.809 14.805 13.25l.027.297c.04.447.07.897.07 1.355 0 .46-.057.945-.14 1.438-.015.09-.029.177-.047.268-.202 1.043-.564 2.143-1.05 3.264-.01.02-.018.041-.027.062a28.766 28.766 0 01-1.812 3.43c-.058.095-.12.19-.18.285a41.517 41.517 0 01-3.353 4.623 2.1 2.1 0 00-.464 1.708 2.148 2.148 0 001.03 1.487c2.72 1.608 4.879 3.968 6.415 7.019zm8.935-15.478c-.846.547-1.923.837-3.114.837h-6.078a32.042 32.042 0 001.165-2.275c.041-.092.086-.184.127-.275.116-.261.224-.522.33-.786.05-.122.103-.244.15-.365.083-.217.157-.436.233-.655.05-.15.109-.3.155-.446.039-.12.067-.24.103-.36.158-.535.29-1.06.383-1.57.01-.052.024-.105.033-.158.044-.255.073-.502.101-.75.012-.096.03-.193.039-.29.031-.342.048-.68.048-1.01h12.943c-1.24 2.326-3.606 6.159-6.618 8.104z" fill="#5D62B5"/><path d="M50.742 14.902c0-4.108-3.342-7.45-7.45-7.45-4.11 0-7.452 3.342-7.452 7.45 0 4.109 3.343 7.451 7.451 7.451 4.109 0 7.451-3.342 7.451-7.45zm-11.921 0a4.476 4.476 0 014.47-4.47c2.057 0 3.777 1.403 4.295 3.297a2.954 2.954 0 00-1.314-.317 2.971 2.971 0 00-1.328 5.636 4.456 4.456 0 01-1.653.325 4.476 4.476 0 01-4.47-4.47zm1.301 29.139c-2.386-1.292-5.318-1.072-8.73.658-3.473 1.763-7.46 3.13-12.186 4.183l-.565.125a2.388 2.388 0 00-1.599 1.219 2.366 2.366 0 00-.106 1.99c1.244 3.129 6.062 13.324 15.859 13.37.12.01.35.025.663.025 1.456 0 4.722-.3 7.41-2.713 2.598-2.335 3.915-5.943 3.915-10.722l-.008-.16c-.027-.236-.67-5.814-4.653-7.975zM38.9 60.66c-2.489 2.257-5.854 1.956-5.88 1.956l-.157-.009c-7.408 0-11.488-7.609-12.886-10.842 4.92-1.103 9.098-2.546 12.767-4.408 2.473-1.257 4.476-1.497 5.95-.7 2.43 1.308 3.034 5.063 3.11 5.611-.018 3.835-.994 6.657-2.904 8.392z" fill="#5D62B5"/></svg>