<svg width="24" height="24" fill="none" xmlns="http://www.w3.org/2000/svg"><path d="M16.032 3H7.967A4.973 4.973 0 003 7.967v8.066A4.973 4.973 0 007.967 21h8.066A4.973 4.973 0 0021 16.033V7.967A4.973 4.973 0 0016.032 3zm3.371 13.033a3.374 3.374 0 01-3.37 3.37H7.967a3.374 3.374 0 01-3.37-3.37V7.967a3.374 3.374 0 013.37-3.37h8.066a3.374 3.374 0 013.37 3.37v8.066z" fill="#F2726F"/><path d="M12 7.362A4.643 4.643 0 007.362 12 4.643 4.643 0 0012 16.638 4.643 4.643 0 0016.638 12 4.643 4.643 0 0012 7.362zm0 7.679a3.044 3.044 0 01-3.041-3.04A3.045 3.045 0 0112 8.958 3.045 3.045 0 0115.041 12 3.044 3.044 0 0112 15.041zm4.833-9.033a1.176 1.176 0 00-1.171 1.171c0 .308.125.61.343.828.218.218.52.343.828.343.308 0 .61-.125.828-.343a1.176 1.176 0 000-1.657 1.176 1.176 0 00-.828-.342z" fill="#F2726F"/></svg>