<svg width="10" height="14" viewBox="0 0 10 14" fill="none" xmlns="http://www.w3.org/2000/svg">
<path fill-rule="evenodd" clip-rule="evenodd" d="M5.00016 0.333496C2.42016 0.333496 0.333496 2.42016 0.333496 5.00016C0.333496 8.50016 5.00016 13.6668 5.00016 13.6668C5.00016 13.6668 9.66683 8.50016 9.66683 5.00016C9.66683 2.42016 7.58016 0.333496 5.00016 0.333496ZM1.66683 5.00016C1.66683 3.16016 3.16016 1.66683 5.00016 1.66683C6.84016 1.66683 8.3335 3.16016 8.3335 5.00016C8.3335 6.92016 6.4135 9.7935 5.00016 11.5868C3.6135 9.80683 1.66683 6.90016 1.66683 5.00016ZM3.3335 5.00016C3.3335 4.07969 4.07969 3.3335 5.00016 3.3335C5.59561 3.3335 6.14582 3.65116 6.44354 4.16683C6.74126 4.6825 6.74126 5.31783 6.44354 5.8335C6.14582 6.34916 5.59561 6.66683 5.00016 6.66683C4.07969 6.66683 3.3335 5.92064 3.3335 5.00016Z" fill="#F2726F"/>
</svg>
