<svg width="22" height="17" fill="none" xmlns="http://www.w3.org/2000/svg"><path d="M21.46 2c-.77.35-1.6.58-2.46.69.88-.53 1.56-1.37 1.88-2.38-.83.5-1.75.85-2.72 1.05C17.37.5 16.26 0 15 0c-2.35 0-4.27 1.92-4.27 4.29 0 .34.04.67.11.98C7.28 5.09 4.11 3.38 2 .79c-.37.63-.58 1.37-.58 2.15 0 1.49.75 2.81 1.91 3.56-.71 0-1.37-.2-1.95-.5v.03c0 2.08 1.48 3.82 3.44 4.21a4.22 4.22 0 01-1.93.07 4.28 4.28 0 004 2.98 8.521 8.521 0 01-5.33 1.84c-.34 0-.68-.02-1.02-.06C2.44 16.29 4.7 17 7.12 17 15 17 19.33 10.46 19.33 4.79c0-.19 0-.37-.01-.56.84-.6 1.56-1.36 2.14-2.23z" fill="#F2726F"/></svg>